<svg xmlns="http://www.w3.org/2000/svg" viewBox="0 0 32 32" width="32" height="32">
  <path d="M31.507 0.970482C31.507 1.04474 31.3585 1.27538 31.0636 1.6631L30.9529 1.80162C30.6016 2.26361 30.3339 2.49424 30.1489 2.49424C29.8347 2.45711 29.4977 2.31002 29.1378 2.05082C28.778 1.79234 28.4766 1.63525 28.2367 1.57956C27.6833 1.46888 27.1285 1.45032 26.5744 1.52386C25.8168 1.63454 24.8286 3.07547 23.609 5.84666C22.4637 8.69211 21.3091 11.5461 20.1452 14.4094C18.6493 17.9382 17.2998 20.3859 16.0995 21.7526C15.8224 22.0668 15.3976 22.5381 14.8249 23.1657C19.7575 25.1058 23.0642 26.0754 24.7458 26.0754C25.6319 26.0754 26.5651 25.8633 27.5448 25.4378C28.1546 25.1793 28.8651 24.7916 29.6784 24.2739C30.3246 23.849 30.6937 23.6363 30.7866 23.6363C30.8423 23.6363 30.8694 23.6734 30.8694 23.7469C30.8694 23.8576 30.8137 24.024 30.703 24.246C30.0382 24.893 29.3263 25.4563 28.5695 25.9362C26.7587 27.0629 24.8565 27.6356 22.8614 27.6542C21.6047 27.672 19.9974 27.3771 18.0395 26.7673C16.2287 26.1397 14.4279 25.5206 12.6357 24.9108C10.6585 26.1854 8.26644 27.0444 5.45884 27.4878C5.18179 27.5249 4.85833 27.5435 4.48917 27.5435C3.3617 27.5435 2.39204 27.3771 1.57946 27.0451C0.526248 26.6202 0 25.9833 0 25.1329C0 23.8583 0.868272 22.9072 2.60482 22.2789C3.80583 21.8354 5.18179 21.5955 6.7334 21.5584C8.8391 21.5213 10.7606 21.7798 12.4971 22.3346C12.5335 22.3346 12.8199 22.4274 13.3561 22.6116C13.9288 21.7433 14.862 19.674 16.1552 16.4045C17.6696 12.5801 18.8714 9.8003 19.7575 8.06376C21.3277 4.94197 22.8893 2.72488 24.4409 1.41319C25.5676 0.471366 26.8243 9.91821e-05 28.2096 9.91821e-05C30.4074 0.000813222 31.507 0.324275 31.507 0.970482ZM11.3611 24.4974C9.36606 23.8697 7.62952 23.5092 6.15146 23.417C4.58128 23.3249 3.30601 23.4999 2.32706 23.9433C1.51377 24.3132 1.12604 24.6916 1.16317 25.0793C1.19959 25.4856 1.52305 25.8369 2.13284 26.1325C2.85331 26.5024 3.80441 26.6866 4.98686 26.6866C5.91011 26.6866 6.96832 26.4789 8.16005 26.0633C9.3525 25.647 10.4193 25.125 11.3611 24.4974Z" fill="#8F7AAE" transform="translate(0, 2)"/>
</svg>
